<svg width="95" height="31" viewBox="0 0 95 31" fill="none" xmlns="http://www.w3.org/2000/svg">
<path d="M89.11 17.26C89.11 16.6867 89.03 16.14 88.87 15.62C88.7233 15.1 88.4833 14.64 88.15 14.24C87.8167 13.84 87.3967 13.5267 86.89 13.3C86.3833 13.06 85.7767 12.94 85.07 12.94C83.75 12.94 82.7167 13.3133 81.97 14.06C81.2233 14.8067 80.7367 15.8733 80.51 17.26H89.11ZM80.43 20.54C80.6033 22.4733 81.15 23.8867 82.07 24.78C83.0033 25.6733 84.2167 26.12 85.71 26.12C86.47 26.12 87.1233 26.0333 87.67 25.86C88.23 25.6733 88.7167 25.4733 89.13 25.26C89.5567 25.0333 89.9367 24.8333 90.27 24.66C90.6167 24.4733 90.9567 24.38 91.29 24.38C91.7167 24.38 92.05 24.54 92.29 24.86L93.89 26.86C93.3033 27.54 92.6567 28.1067 91.95 28.56C91.2433 29 90.51 29.3533 89.75 29.62C88.99 29.8733 88.2233 30.0467 87.45 30.14C86.6767 30.2467 85.93 30.3 85.21 30.3C83.77 30.3 82.4233 30.0667 81.17 29.6C79.93 29.12 78.8433 28.42 77.91 27.5C76.99 26.5667 76.2633 25.4133 75.73 24.04C75.1967 22.6667 74.93 21.0733 74.93 19.26C74.93 17.86 75.1567 16.54 75.61 15.3C76.0767 14.06 76.7433 12.98 77.61 12.06C78.4767 11.14 79.53 10.4133 80.77 9.88C82.01 9.33333 83.41 9.06 84.97 9.06C86.29 9.06 87.5033 9.27333 88.61 9.7C89.73 10.1133 90.69 10.72 91.49 11.52C92.3033 12.32 92.93 13.3067 93.37 14.48C93.8233 15.64 94.05 16.9667 94.05 18.46C94.05 18.8733 94.03 19.2133 93.99 19.48C93.95 19.7467 93.8833 19.96 93.79 20.12C93.6967 20.28 93.57 20.3933 93.41 20.46C93.25 20.5133 93.0433 20.54 92.79 20.54H80.43Z" fill="white"/>
<path d="M66.6006 12.78C67.254 11.6066 68.0073 10.68 68.8606 9.99998C69.714 9.31998 70.714 8.97998 71.8606 8.97998C72.794 8.97998 73.554 9.19998 74.1406 9.63998L73.7806 13.72C73.714 13.9866 73.6073 14.1733 73.4606 14.28C73.3273 14.3733 73.1406 14.42 72.9006 14.42C72.6873 14.42 72.3806 14.3933 71.9806 14.34C71.5806 14.2733 71.2073 14.24 70.8606 14.24C70.354 14.24 69.9006 14.3133 69.5006 14.46C69.114 14.6066 68.7673 14.8133 68.4606 15.08C68.154 15.3466 67.874 15.6733 67.6206 16.06C67.3806 16.4466 67.154 16.8866 66.9406 17.38V30H61.4206V9.37998H64.6806C65.2406 9.37998 65.6273 9.47998 65.8406 9.67998C66.054 9.87998 66.2073 10.2266 66.3006 10.72L66.6006 12.78Z" fill="white"/>
<path d="M47.6347 9.06C49.1814 9.06 50.588 9.30666 51.8547 9.8C53.1214 10.2933 54.208 11 55.1147 11.92C56.0214 12.8267 56.7214 13.9333 57.2147 15.24C57.708 16.5467 57.9547 18.02 57.9547 19.66C57.9547 21.3 57.708 22.78 57.2147 24.1C56.7214 25.4067 56.0214 26.52 55.1147 27.44C54.208 28.36 53.1214 29.0667 51.8547 29.56C50.588 30.0533 49.1814 30.3 47.6347 30.3C46.0747 30.3 44.6547 30.0533 43.3747 29.56C42.108 29.0667 41.0214 28.36 40.1147 27.44C39.208 26.52 38.5014 25.4067 37.9947 24.1C37.5014 22.78 37.2547 21.3 37.2547 19.66C37.2547 18.02 37.5014 16.5467 37.9947 15.24C38.5014 13.9333 39.208 12.8267 40.1147 11.92C41.0214 11 42.108 10.2933 43.3747 9.8C44.6547 9.30666 46.0747 9.06 47.6347 9.06ZM47.6347 26.16C49.208 26.16 50.3747 25.62 51.1347 24.54C51.8947 23.4467 52.2747 21.8267 52.2747 19.68C52.2747 17.5467 51.8947 15.94 51.1347 14.86C50.3747 13.7667 49.208 13.22 47.6347 13.22C46.0214 13.22 44.8347 13.7667 44.0747 14.86C43.3147 15.94 42.9347 17.5467 42.9347 19.68C42.9347 21.8267 43.3147 23.4467 44.0747 24.54C44.8347 25.62 46.0214 26.16 47.6347 26.16Z" fill="white"/>
<path d="M30.5328 30.32C29.5995 30.32 28.7728 30.1866 28.0528 29.92C27.3328 29.64 26.7262 29.2466 26.2328 28.74C25.7395 28.2333 25.3662 27.62 25.1128 26.9C24.8595 26.18 24.7328 25.3666 24.7328 24.46V13.34H22.7928C22.4995 13.34 22.2462 13.2466 22.0328 13.06C21.8328 12.8733 21.7328 12.5933 21.7328 12.22V10.06L25.0328 9.45997L26.1528 4.11997C26.2995 3.51997 26.7062 3.21997 27.3728 3.21997H30.2528V9.49997H35.5728V13.34H30.2528V24.1C30.2528 24.6733 30.3862 25.1266 30.6528 25.46C30.9328 25.7933 31.3262 25.96 31.8328 25.96C32.0995 25.96 32.3262 25.9333 32.5128 25.88C32.6995 25.8133 32.8595 25.7466 32.9928 25.68C33.1262 25.6 33.2462 25.5333 33.3528 25.48C33.4728 25.4133 33.5928 25.38 33.7128 25.38C33.8728 25.38 34.0062 25.42 34.1128 25.5C34.2195 25.5666 34.3262 25.6866 34.4328 25.86L36.0928 28.5C35.3328 29.1 34.4728 29.5533 33.5128 29.86C32.5528 30.1666 31.5595 30.32 30.5328 30.32Z" fill="white"/>
<path d="M18.76 6.53997C18.5733 6.84664 18.38 7.07331 18.18 7.21997C17.9933 7.35331 17.7467 7.41997 17.44 7.41997C17.1467 7.41997 16.8267 7.31997 16.48 7.11997C16.1467 6.90664 15.7533 6.67997 15.3 6.43997C14.8467 6.19997 14.3267 5.97997 13.74 5.77997C13.1533 5.56664 12.4667 5.45997 11.68 5.45997C10.2933 5.45997 9.25334 5.77331 8.56001 6.39997C7.86668 7.01331 7.52001 7.81997 7.52001 8.81997C7.52001 9.45997 7.70668 9.99331 8.08001 10.42C8.46668 10.8333 8.96668 11.1933 9.58001 11.5C10.2067 11.8066 10.9133 12.08 11.7 12.32C12.4867 12.56 13.2933 12.8266 14.12 13.12C14.9467 13.4 15.7533 13.7333 16.54 14.12C17.3267 14.5066 18.0267 14.9933 18.64 15.58C19.2667 16.1666 19.7667 16.8866 20.14 17.74C20.5267 18.58 20.72 19.6066 20.72 20.82C20.72 22.14 20.4867 23.38 20.02 24.54C19.5667 25.6866 18.9067 26.6933 18.04 27.56C17.1733 28.4133 16.1 29.0866 14.82 29.58C13.5533 30.0733 12.1133 30.32 10.5 30.32C9.58001 30.32 8.66001 30.2266 7.74001 30.04C6.83334 29.8533 5.95334 29.5933 5.10001 29.26C4.26001 28.9266 3.46668 28.5266 2.72001 28.06C1.97334 27.5933 1.32001 27.0733 0.76001 26.5L2.52001 23.66C2.66668 23.4466 2.86001 23.2733 3.10001 23.14C3.34001 22.9933 3.59334 22.92 3.86001 22.92C4.22001 22.92 4.60001 23.0533 5.00001 23.32C5.40001 23.5866 5.86001 23.88 6.38001 24.2C6.90001 24.52 7.50001 24.8133 8.18001 25.08C8.87334 25.3466 9.70001 25.48 10.66 25.48C12.06 25.48 13.14 25.16 13.9 24.52C14.6733 23.88 15.06 22.9266 15.06 21.66C15.06 20.9266 14.8667 20.3333 14.48 19.88C14.1067 19.4266 13.6133 19.0466 13 18.74C12.3867 18.4333 11.6867 18.1733 10.9 17.96C10.1133 17.7333 9.30668 17.4866 8.48001 17.22C7.65334 16.9533 6.84668 16.6333 6.06001 16.26C5.27334 15.8866 4.57334 15.3933 3.96001 14.78C3.34668 14.1666 2.84668 13.4066 2.46001 12.5C2.08668 11.5933 1.90001 10.4666 1.90001 9.11997C1.90001 8.03997 2.11334 6.99331 2.54001 5.97997C2.96668 4.96664 3.59334 4.06664 4.42001 3.27997C5.24668 2.49331 6.26001 1.85997 7.46001 1.37997C8.67334 0.899972 10.06 0.659973 11.62 0.659973C13.3667 0.659973 14.98 0.933306 16.46 1.47997C17.9533 2.01331 19.2133 2.75997 20.24 3.71997L18.76 6.53997Z" fill="white"/>
</svg>
