<svg width="21" height="31" viewBox="0 0 21 31" fill="none" xmlns="http://www.w3.org/2000/svg">
<path d="M18.76 6.53997C18.5733 6.84664 18.38 7.07331 18.18 7.21997C17.9933 7.35331 17.7467 7.41997 17.44 7.41997C17.1467 7.41997 16.8267 7.31997 16.48 7.11997C16.1467 6.90664 15.7533 6.67997 15.3 6.43997C14.8467 6.19997 14.3267 5.97997 13.74 5.77997C13.1533 5.56664 12.4667 5.45997 11.68 5.45997C10.2933 5.45997 9.25334 5.77331 8.56001 6.39997C7.86668 7.01331 7.52001 7.81997 7.52001 8.81997C7.52001 9.45997 7.70668 9.99331 8.08001 10.42C8.46668 10.8333 8.96668 11.1933 9.58001 11.5C10.2067 11.8066 10.9133 12.08 11.7 12.32C12.4867 12.56 13.2933 12.8266 14.12 13.12C14.9467 13.4 15.7533 13.7333 16.54 14.12C17.3267 14.5066 18.0267 14.9933 18.64 15.58C19.2667 16.1666 19.7667 16.8866 20.14 17.74C20.5267 18.58 20.72 19.6066 20.72 20.82C20.72 22.14 20.4867 23.38 20.02 24.54C19.5667 25.6866 18.9067 26.6933 18.04 27.56C17.1733 28.4133 16.1 29.0866 14.82 29.58C13.5533 30.0733 12.1133 30.32 10.5 30.32C9.58001 30.32 8.66001 30.2266 7.74001 30.04C6.83334 29.8533 5.95334 29.5933 5.10001 29.26C4.26001 28.9266 3.46668 28.5266 2.72001 28.06C1.97334 27.5933 1.32001 27.0733 0.76001 26.5L2.52001 23.66C2.66668 23.4466 2.86001 23.2733 3.10001 23.14C3.34001 22.9933 3.59334 22.92 3.86001 22.92C4.22001 22.92 4.60001 23.0533 5.00001 23.32C5.40001 23.5866 5.86001 23.88 6.38001 24.2C6.90001 24.52 7.50001 24.8133 8.18001 25.08C8.87334 25.3466 9.70001 25.48 10.66 25.48C12.06 25.48 13.14 25.16 13.9 24.52C14.6733 23.88 15.06 22.9266 15.06 21.66C15.06 20.9266 14.8667 20.3333 14.48 19.88C14.1067 19.4266 13.6133 19.0466 13 18.74C12.3867 18.4333 11.6867 18.1733 10.9 17.96C10.1133 17.7333 9.30668 17.4866 8.48001 17.22C7.65334 16.9533 6.84668 16.6333 6.06001 16.26C5.27334 15.8866 4.57334 15.3933 3.96001 14.78C3.34668 14.1666 2.84668 13.4066 2.46001 12.5C2.08668 11.5933 1.90001 10.4666 1.90001 9.11997C1.90001 8.03997 2.11334 6.99331 2.54001 5.97997C2.96668 4.96664 3.59334 4.06664 4.42001 3.27997C5.24668 2.49331 6.26001 1.85997 7.46001 1.37997C8.67334 0.899972 10.06 0.659973 11.62 0.659973C13.3667 0.659973 14.98 0.933306 16.46 1.47997C17.9533 2.01331 19.2133 2.75997 20.24 3.71997L18.76 6.53997Z" fill="white"/>
</svg>
