<svg width="20" height="20" viewBox="0 0 20 20" fill="none" xmlns="http://www.w3.org/2000/svg">
<path d="M6.8 15.8C5.92 15.8 5.208 16.52 5.208 17.4C5.208 18.28 5.92 19 6.8 19C7.68 19 8.4 18.28 8.4 17.4C8.4 16.52 7.68 15.8 6.8 15.8ZM2 3V4.6H3.6L6.48 10.672L5.4 12.632C5.272 12.856 5.2 13.12 5.2 13.4C5.2 14.28 5.92 15 6.8 15H16.4V13.4H7.136C7.024 13.4 6.936 13.312 6.936 13.2L6.96 13.104L7.68 11.8H13.64C14.24 11.8 14.768 11.472 15.04 10.976L17.904 5.784C17.968 5.672 18 5.536 18 5.4C18 4.96 17.64 4.6 17.2 4.6H5.368L4.616 3H2ZM14.8 15.8C13.92 15.8 13.208 16.52 13.208 17.4C13.208 18.28 13.92 19 14.8 19C15.68 19 16.4 18.28 16.4 17.4C16.4 16.52 15.68 15.8 14.8 15.8Z" />
</svg>
