<svg width="20" height="20" viewBox="0 0 20 20" fill="none" xmlns="http://www.w3.org/2000/svg">
<path fill-rule="evenodd" clip-rule="evenodd" d="M12.9134 14.8332C13.3248 15.3662 13.8183 15.9856 13.8183 15.9856C16.6895 15.8901 17.8741 14.0225 17.9904 13.8392C17.9968 13.829 18 13.8239 18 13.8247C18 9.22942 16.0257 5.49834 16.0257 5.49834C14.0652 3.95697 12.1868 4.00012 12.1868 4.00012L11.9948 4.23067C14.3256 4.96536 15.4087 6.04572 15.4087 6.04572C13.9828 5.23905 12.5844 4.83564 11.282 4.67722C10.2948 4.56194 9.3488 4.59079 8.51244 4.70595C8.44062 4.70595 8.3792 4.71699 8.31004 4.72939L8.27938 4.7348C7.79947 4.79249 6.63413 4.96536 5.1671 5.64234C4.6598 5.87283 4.35818 6.04572 4.35818 6.04572C4.35818 6.04572 5.48242 4.90765 7.95031 4.17298L7.81324 4.00012C7.81324 4.00012 5.94862 3.95697 3.97428 5.49834C3.97428 5.49834 2 9.22942 2 13.8247C2 13.8247 3.15166 15.8992 6.18169 16C6.18169 16 6.68898 15.3662 7.10027 14.8187C5.35905 14.2714 4.70095 13.1333 4.70095 13.1333C4.70095 13.1333 4.83805 13.2342 5.08483 13.3782C5.09332 13.3782 5.10178 13.3837 5.1135 13.3912C5.12071 13.396 5.12921 13.4014 5.13968 13.407C5.16024 13.4215 5.18083 13.4323 5.20139 13.4431C5.22195 13.4538 5.24252 13.4646 5.26308 13.479C5.60578 13.6807 5.94862 13.8392 6.26391 13.9689C6.82604 14.2137 7.49787 14.4298 8.27938 14.5882C9.30764 14.7899 10.5141 14.8619 11.8303 14.6026C12.4748 14.473 13.1328 14.2857 13.8183 13.9833C14.2982 13.796 14.8329 13.5223 15.395 13.1333C15.395 13.1333 14.7095 14.3002 12.9134 14.8332ZM11.0485 10.6346C11.0485 9.78963 11.6655 9.11099 12.447 9.11099C13.2148 9.11099 13.8454 9.78963 13.8454 10.6346C13.8454 11.4796 13.2284 12.1582 12.447 12.1582C11.6792 12.1582 11.0485 11.4796 11.0485 10.6346ZM6.04427 10.6346C6.04427 9.78963 6.66124 9.11099 7.44267 9.11099C8.22418 9.11099 8.85484 9.78963 8.84116 10.6346C8.84116 11.4796 8.22418 12.1582 7.44267 12.1582C6.67493 12.1582 6.04427 11.4796 6.04427 10.6346Z" />
</svg>
