<svg width="20" height="20" viewBox="0 0 20 20" fill="none" xmlns="http://www.w3.org/2000/svg">
<path d="M2 15.0833C2 15.5896 2.41041 16 2.91667 16H17.0833C17.5896 16 18 15.5896 18 15.0833C18 14.5771 17.5896 14.1667 17.0833 14.1667H2.91667C2.41041 14.1667 2 14.5771 2 15.0833ZM2 10.5C2 11.0063 2.41041 11.4167 2.91667 11.4167H17.0833C17.5896 11.4167 18 11.0063 18 10.5C18 9.99374 17.5896 9.58333 17.0833 9.58333H2.91667C2.41041 9.58333 2 9.99374 2 10.5ZM2.91667 5C2.41041 5 2 5.41041 2 5.91667C2 6.42293 2.41041 6.83333 2.91667 6.83333H17.0833C17.5896 6.83333 18 6.42293 18 5.91667C18 5.41041 17.5896 5 17.0833 5H2.91667Z" />
</svg>
