<svg viewBox="0 0 14 18" fill="none" xmlns="http://www.w3.org/2000/svg">
<path d="M3.66683 1.49996C3.66683 1.03972 4.03993 0.666626 4.50016 0.666626H9.50016C9.9604 0.666626 10.3335 1.03972 10.3335 1.49996V2.33329H12.8335C13.2937 2.33329 13.6668 2.70639 13.6668 3.16663V3.99996H0.333496V3.16663C0.333496 2.70639 0.706592 2.33329 1.16683 2.33329H3.66683V1.49996Z" fill="#7B260D"/>
<path fill-rule="evenodd" clip-rule="evenodd" d="M12.8335 5.66663H1.16683V16.5C1.16683 16.9602 1.53993 17.3333 2.00016 17.3333H12.0002C12.4604 17.3333 12.8335 16.9602 12.8335 16.5V5.66663ZM9.50016 7.33329H7.8335V15.6666H9.50016V7.33329ZM4.50016 7.33329H6.16683V15.6666H4.50016V7.33329Z" fill="#7B260D"/>
</svg>
