<svg width="51" height="27" viewBox="0 0 51 27" fill="none" xmlns="http://www.w3.org/2000/svg">
<path d="M6.06926 6.69328C7.0781 5.04355 8.90508 4.56561 8.90508 4.56561C8.90508 4.56561 5.41826 3.65181 5.41826 0C5.41826 3.65181 1.92941 4.56561 1.92941 4.56561C1.92941 4.56561 3.75706 5.04355 4.76658 6.69328H0V13.0179L1.08365 11.0593H3.25028V21.9747L7.58421 26.3407V12.9758C6.47899 12.4626 4.89126 11.1577 4.32247 10.1625C5.29358 10.4578 6.59626 10.8461 7.61049 11.06H10.8352V6.69328H6.06926Z" fill="#852204"/>
<g clip-path="url(#clip0_203_1013)">
<path fill-rule="evenodd" clip-rule="evenodd" d="M30.1736 12.8057C30.7347 12.039 31.6074 11.6188 32.6547 11.6188H32.656C34.6742 11.6188 36.0835 13.1431 36.0835 15.2622C36.0835 17.3813 34.6315 18.9185 32.6288 18.9185C31.5583 18.9185 30.7063 18.519 30.1529 17.7601L30.1167 18.7492H28.5872V8.96704H30.1736V12.8057ZM32.5435 17.5791C33.7718 17.5791 34.629 16.6456 34.629 15.31C34.629 13.9434 33.8661 13.0268 32.6224 13.0268C31.3786 13.0268 30.5098 13.9318 30.5098 15.31C30.5098 16.6883 31.3152 17.5791 32.5435 17.5791ZM19.1348 17.3528C18.7417 17.6528 18.4288 17.7691 18.0164 17.7691C17.4087 17.7691 17.0597 17.3994 17.0597 16.7529V13.1043H19.6093V11.7002H17.0597V9.87724H15.4733V11.6989H14.3704L14.011 13.103H15.4733V16.7658C15.4733 18.3626 16.3227 19.2418 17.8664 19.2418C18.5711 19.2418 19.1994 19.0246 19.7851 18.5772L19.8278 18.5449L19.1968 17.305L19.1348 17.3515V17.3528ZM23.7673 11.5632C21.7387 11.5632 20.2674 13.1018 20.2674 15.2208C20.2674 17.4511 21.6676 18.8914 23.8332 18.8914C25.0705 18.8914 25.9949 18.5139 26.7396 17.7032L26.7784 17.6618L25.9368 16.6469L25.8863 16.696C25.3058 17.2636 24.7059 17.517 23.9379 17.517C22.7329 17.517 21.9921 16.8564 21.846 15.6527H27.0577V15.588C27.0577 15.5234 27.0603 15.4626 27.0642 15.4018C27.068 15.3385 27.0706 15.2751 27.0706 15.2079C27.0706 12.9944 25.7738 11.5632 23.7673 11.5632ZM21.8783 14.6132C22.08 13.606 22.8092 12.9595 23.7543 12.9595C24.6994 12.9595 25.3381 13.5607 25.4778 14.6132H21.8783ZM40.3889 11.5632C38.3603 11.5632 36.889 13.1018 36.889 15.2208C36.889 17.4511 38.2892 18.8914 40.4548 18.8914C41.6921 18.8914 42.6165 18.5139 43.3613 17.7032L43.4 17.6618L42.5584 16.6469L42.5079 16.696C41.9274 17.2636 41.3275 17.517 40.5595 17.517C39.3545 17.517 38.6137 16.8564 38.4676 15.6527H43.6793V15.588C43.6793 15.5234 43.6819 15.4626 43.6858 15.4018C43.6897 15.3385 43.6922 15.2751 43.6922 15.2079C43.6922 12.9944 42.3955 11.5632 40.3889 11.5632ZM40.3759 12.9582C41.3353 12.9582 41.9597 13.5594 42.0994 14.6119H38.4999C38.7016 13.6047 39.4308 12.9582 40.3759 12.9582ZM50.6002 11.699L48.1398 15.0515L50.8782 18.7492H48.9932L47.2245 16.2254L45.4946 18.7492H43.7026L46.3479 15.1446L43.8215 11.699H45.7066L47.2632 13.9952L48.807 11.699H50.6002Z" fill="#852204"/>
</g>
<defs>
<clipPath id="clip0_203_1013">
<rect width="36.8672" height="10.2747" fill="white" transform="translate(14.011 8.96704)"/>
</clipPath>
</defs>
</svg>
